HIERARCHY
ROOT Hips
{
    OFFSET 0.000000 0.000000 0.000000
    CHANNELS 6 Xposition Yposition Zposition Zrotation Xrotation Yrotation
    JOINT Spine
    {
        OFFSET 0.000002 7.164412 0.000002
        CHANNELS 3 Zrotation Xrotation Yrotation
        JOINT Spine1
        {
            OFFSET -0.000001 20.126801 -0.000002
            CHANNELS 3 Zrotation Xrotation Yrotation
            JOINT Neck
            {
                OFFSET 0.000000 21.094069 0.000000
                CHANNELS 3 Zrotation Xrotation Yrotation
                JOINT Head
                {
                    OFFSET -0.000001 12.838277 1.776080
                    CHANNELS 3 Zrotation Xrotation Yrotation
                    End Site
                    {
                        OFFSET 0.000000 17.760757 0.000000
                    }
                }
            }
            JOINT LeftShoulder
            {
                OFFSET 3.550527 15.465700 -0.908803
                CHANNELS 3 Zrotation Xrotation Yrotation
                JOINT LeftArm
                {
                    OFFSET 12.513296 -0.000006 -0.000002
                    CHANNELS 3 Zrotation Xrotation Yrotation
                    JOINT LeftForeArm
                    {
                        OFFSET 24.225996 -0.000003 0.000001
                        CHANNELS 3 Zrotation Xrotation Yrotation
                        JOINT LeftHand
                        {
                            OFFSET 20.711399 -0.000005 -0.000004
                            CHANNELS 3 Zrotation Xrotation Yrotation
                            JOINT LeftHandThumb1
                            {
                                OFFSET 2.121969 -2.411331 3.375859
                                CHANNELS 3 Zrotation Xrotation Yrotation
                                JOINT LeftHandThumb2
                                {
                                    OFFSET 2.803208 0.000003 0.000001
                                    CHANNELS 3 Zrotation Xrotation Yrotation
                                    JOINT LeftHandThumb3
                                    {
                                        OFFSET 2.395929 0.000004 -0.000003
                                        CHANNELS 3 Zrotation Xrotation Yrotation
                                        End Site
                                        {
                                            OFFSET 2.127676 0.000000 0.000000
                                        }
                                    }
                                }
                            }
                            JOINT LeftHandIndex1
                            {
                                OFFSET 8.680775 0.000005 3.375860
                                CHANNELS 3 Zrotation Xrotation Yrotation
                                JOINT LeftHandIndex2
                                {
                                    OFFSET 4.218178 -0.000000 -0.000000
                                    CHANNELS 3 Zrotation Xrotation Yrotation
                                    JOINT LeftHandIndex3
                                    {
                                        OFFSET 2.109086 -0.000004 0.000002
                                        CHANNELS 3 Zrotation Xrotation Yrotation
                                        End Site
                                        {
                                            OFFSET 1.872952 0.000000 0.000000
                                        }
                                    }
                                }
                            }
                            JOINT LeftHandMiddle1
                            {
                                OFFSET 8.680778 -0.000002 1.118860
                                CHANNELS 3 Zrotation Xrotation Yrotation
                                JOINT LeftHandMiddle2
                                {
                                    OFFSET 4.640003 -0.000004 -0.000001
                                    CHANNELS 3 Zrotation Xrotation Yrotation
                                    JOINT LeftHandMiddle3
                                    {
                                        OFFSET 2.530911 0.000002 -0.000001
                                        CHANNELS 3 Zrotation Xrotation Yrotation
                                        End Site
                                        {
                                            OFFSET 2.247544 0.000000 0.000000
                                        }
                                    }
                                }
                            }
                            JOINT LeftHandRing1
                            {
                                OFFSET 8.198517 0.000004 -1.118860
                                CHANNELS 3 Zrotation Xrotation Yrotation
                                JOINT LeftHandRing2
                                {
                                    OFFSET 4.218183 -0.000002 -0.000002
                                    CHANNELS 3 Zrotation Xrotation Yrotation
                                    JOINT LeftHandRing3
                                    {
                                        OFFSET 2.109094 0.000005 -0.000000
                                        CHANNELS 3 Zrotation Xrotation Yrotation
                                        End Site
                                        {
                                            OFFSET 1.872952 0.000000 0.000000
                                        }
                                    }
                                }
                            }
                            JOINT LeftHandPinky1
                            {
                                OFFSET 7.716254 0.000002 -3.375863
                                CHANNELS 3 Zrotation Xrotation Yrotation
                                JOINT LeftHandPinky2
                                {
                                    OFFSET 3.374536 0.000002 0.000001
                                    CHANNELS 3 Zrotation Xrotation Yrotation
                                    JOINT LeftHandPinky3
                                    {
                                        OFFSET 1.687274 -0.000002 -0.000004
                                        CHANNELS 3 Zrotation Xrotation Yrotation
                                        End Site
                                        {
                                            OFFSET 1.498360 0.000000 0.000000
                                        }
                                    }
                                }
                            }
                        }
                    }
                }
            }
            JOINT RightShoulder
            {
                OFFSET -3.550529 15.465699 -0.908801
                CHANNELS 3 Zrotation Xrotation Yrotation
                JOINT RightArm
                {
                    OFFSET -12.513299 -0.000001 -0.000000
                    CHANNELS 3 Zrotation Xrotation Yrotation
                    JOINT RightForeArm
                    {
                        OFFSET -24.226000 -0.000003 -0.000001
                        CHANNELS 3 Zrotation Xrotation Yrotation
                        JOINT RightHand
                        {
                            OFFSET -20.711397 -0.000003 -0.000002
                            CHANNELS 3 Zrotation Xrotation Yrotation
                            JOINT RightHandThumb1
                            {
                                OFFSET -2.121970 -2.411331 3.375859
                                CHANNELS 3 Zrotation Xrotation Yrotation
                                JOINT RightHandThumb2
                                {
                                    OFFSET -2.803209 -0.000004 0.000004
                                    CHANNELS 3 Zrotation Xrotation Yrotation
                                    JOINT RightHandThumb3
                                    {
                                        OFFSET -2.395928 0.000004 -0.000003
                                        CHANNELS 3 Zrotation Xrotation Yrotation
                                        End Site
                                        {
                                            OFFSET -2.127676 0.000000 0.000000
                                        }
                                    }
                                }
                            }
                            JOINT RightHandIndex1
                            {
                                OFFSET -8.680779 0.000001 3.375859
                                CHANNELS 3 Zrotation Xrotation Yrotation
                                JOINT RightHandIndex2
                                {
                                    OFFSET -4.218179 0.000003 -0.000001
                                    CHANNELS 3 Zrotation Xrotation Yrotation
                                    JOINT RightHandIndex3
                                    {
                                        OFFSET -2.109090 -0.000002 0.000000
                                        CHANNELS 3 Zrotation Xrotation Yrotation
                                        End Site
                                        {
                                            OFFSET -1.872952 0.000000 0.000000
                                        }
                                    }
                                }
                            }
                            JOINT RightHandMiddle1
                            {
                                OFFSET -8.680779 -0.000002 1.118859
                                CHANNELS 3 Zrotation Xrotation Yrotation
                                JOINT RightHandMiddle2
                                {
                                    OFFSET -4.639998 0.000003 -0.000001
                                    CHANNELS 3 Zrotation Xrotation Yrotation
                                    JOINT RightHandMiddle3
                                    {
                                        OFFSET -2.530910 -0.000000 -0.000000
                                        CHANNELS 3 Zrotation Xrotation Yrotation
                                        End Site
                                        {
                                            OFFSET -2.247544 0.000000 0.000000
                                        }
                                    }
                                }
                            }
                            JOINT RightHandRing1
                            {
                                OFFSET -8.198519 -0.000004 -1.118859
                                CHANNELS 3 Zrotation Xrotation Yrotation
                                JOINT RightHandRing2
                                {
                                    OFFSET -4.218180 -0.000005 0.000000
                                    CHANNELS 3 Zrotation Xrotation Yrotation
                                    JOINT RightHandRing3
                                    {
                                        OFFSET -2.109090 0.000002 0.000002
                                        CHANNELS 3 Zrotation Xrotation Yrotation
                                        End Site
                                        {
                                            OFFSET -1.872952 0.000000 0.000000
                                        }
                                    }
                                }
                            }
                            JOINT RightHandPinky1
                            {
                                OFFSET -7.716249 0.000004 -3.375858
                                CHANNELS 3 Zrotation Xrotation Yrotation
                                JOINT RightHandPinky2
                                {
                                    OFFSET -3.374539 0.000003 -0.000000
                                    CHANNELS 3 Zrotation Xrotation Yrotation
                                    JOINT RightHandPinky3
                                    {
                                        OFFSET -1.687270 -0.000004 -0.000001
                                        CHANNELS 3 Zrotation Xrotation Yrotation
                                        End Site
                                        {
                                            OFFSET -1.498360 0.000000 0.000000
                                        }
                                    }
                                }
                            }
                        }
                    }
                }
            }
        }
    }
    JOINT LeftUpLeg
    {
        OFFSET 8.880377 0.000003 0.000001
        CHANNELS 3 Zrotation Xrotation Yrotation
        JOINT LeftLeg
        {
            OFFSET -0.000000 -40.387413 0.000001
            CHANNELS 3 Zrotation Xrotation Yrotation
            JOINT LeftFoot
            {
                OFFSET -0.000000 -36.911304 0.000000
                CHANNELS 3 Zrotation Xrotation Yrotation
                JOINT LeftToeBase
                {
                    OFFSET 0.000003 -5.772240 13.320597
                    CHANNELS 3 Zrotation Xrotation Yrotation
                    End Site
                    {
                        OFFSET 0.000000 0.000000 3.552151
                    }
                }
            }
        }
    }
    JOINT RightUpLeg
    {
        OFFSET -8.880380 -0.000003 -0.000001
        CHANNELS 3 Zrotation Xrotation Yrotation
        JOINT RightLeg
        {
            OFFSET 0.000001 -40.387405 0.000000
            CHANNELS 3 Zrotation Xrotation Yrotation
            JOINT RightFoot
            {
                OFFSET -0.000001 -36.911304 -0.000001
                CHANNELS 3 Zrotation Xrotation Yrotation
                JOINT RightToeBase
                {
                    OFFSET 0.000000 -5.772241 13.320600
                    CHANNELS 3 Zrotation Xrotation Yrotation
                    End Site
                    {
                        OFFSET 0.000000 0.000000 3.552151
                    }
                }
            }
        }
    }
}
MOTION
Frames: 4
Frame Time: 0.013889
62.094521    83.438492    -5.146107    -4.929404    7.557972    1.907661    0.505510    -18.048998    1.631173    0.776605    14.845740    1.300405    11.672922    -12.797527    0.225313    3.506253    3.488221    -2.618735    3.090737    6.654662    -4.350303    -27.913355    59.078533    -35.698452    11.011992    10.658271    -46.455898    24.974575    3.672939    -12.230989    25.194141    39.060249    -43.969177    -13.011122    -0.475481    23.312895    -0.000000    0.000000    -0.000000    6.022320    17.906971    -1.367712    5.729578    -0.000000    -0.000009    5.729576    -0.000002    0.000001    5.800515    8.954667    -0.660800    5.729571    0.000013    -0.000013    5.729578    0.000000    0.000001    5.800512    -8.954671    -2.737796    5.729572    0.000003    -0.000004    5.729573    -0.000004    -0.000009    6.022317    -17.906971    -5.429472    5.729565    0.000003    -0.000013    5.729578    0.000003    -0.000002    2.600505    6.423597    9.375961    16.421185    56.574158    34.523285    10.106210    -12.640844    39.161930    39.759109    8.765404    -12.336802    -39.005505    28.013561    46.098854    14.258919    -1.012974    -23.296684    -0.000000    0.000000    -0.000000    5.860745    17.911890    10.588332    5.575750    -0.000000    -0.000003    5.575750    0.000008    -0.000007    2.516639    8.991458    5.804709    2.485690    0.000002    -0.000007    2.485697    0.000002    -0.000000    0.952393    -8.998765    3.056730    0.940666    0.000002    -0.000003    0.940666    -0.000003    0.000010    -0.635462    -17.998907    5.619148    -0.604367    -0.000002    -0.000000    -0.604362    0.000005    -0.000007    3.158893    -11.194553    -0.973050    0.000000    23.571388    -0.000000    4.622866    -10.150254    -0.498729    -0.000000    1.593492    0.000000    1.915066    -18.696911    -13.058770    0.000002    36.106995    -0.000003    7.927263    -4.851915    4.578411    0.000002    -4.843856    0.000000    
61.934166    83.525520    -5.220543    -5.395369    7.550341    1.472297    0.568703    -17.885462    1.851174    0.419507    14.521914    1.600373    11.791596    -12.468760    -0.011378    3.617993    4.004423    -2.849902    3.016338    6.744952    -4.795180    -24.827713    59.678627    -37.472031    11.399314    10.732425    -47.273861    23.837595    5.221234    -13.284522    25.171135    39.091141    -44.096352    -13.160248    -0.539739    23.311581    -0.000000    0.000000    -0.000000    6.022321    17.906973    -1.836946    5.729581    0.000000    0.000000    5.729579    -0.000002    0.000004    5.800513    8.954667    -0.895411    5.729580    -0.000002    0.000001    5.729577    -0.000002    0.000001    5.800513    -8.954674    -2.817821    5.729582    0.000003    -0.000000    5.729585    -0.000016    0.000014    6.022322    -17.906973    -5.589519    5.729579    0.000000    0.000005    5.729583    -0.000023    0.000012    2.198949    6.266423    9.739783    11.276641    57.245419    39.641918    11.005695    -12.878796    41.106518    41.663799    8.363042    -13.538001    -39.726032    27.293627    46.592354    13.963536    -0.885777    -23.301586    -0.000000    0.000000    -0.000000    7.145169    17.869097    11.502179    6.798812    0.000002    -0.000000    6.798819    -0.000002    -0.000007    3.437631    8.984074    6.315042    3.395406    -0.000002    -0.000003    3.395409    0.000002    0.000003    1.714808    -8.996056    3.150425    1.693701    0.000003    -0.000007    1.693701    -0.000005    0.000003    -0.008408    -17.999969    5.761816    -0.008005    -0.000003    0.000003    -0.007995    0.000002    -0.000007    3.850803    -10.838870    -0.421017    -0.000000    22.900101    -0.000000    4.579466    -10.202417    -0.520116    0.000000    1.865456    -0.000000    2.288563    -19.539532    -12.842284    -0.000001    37.267990    -0.000000    8.285355    -3.588452    5.038369    -0.000002    -4.999533    0.000001    
61.779316    83.592346    -5.303942    -5.829310    7.512960    1.052155    0.631039    -17.743837    2.069781    0.115204    14.424439    1.880522    11.724632    -12.277794    -0.318441    3.654173    4.312154    -3.122707    2.827335    6.716735    -5.134748    -21.798912    60.066460    -39.264503    11.780986    10.823762    -48.000584    23.007063    7.209294    -14.438223    25.412315    38.933018    -44.511295    -13.183007    -0.549546    23.311359    -0.000000    0.000000    -0.000000    6.022321    17.906975    -2.285295    5.729579    0.000000    0.000006    5.729578    -0.000002    0.000002    5.800511    8.954666    -1.119586    5.729578    0.000000    0.000000    5.729584    0.000003    -0.000003    5.800512    -8.954676    -2.852285    5.729581    0.000004    0.000005    5.729578    -0.000003    0.000002    6.022318    -17.906982    -5.658449    5.729578    -0.000000    -0.000001    5.729578    0.000000    0.000002    1.833659    5.843022    9.931181    5.651512    57.480831    45.171692    12.089523    -13.129858    43.316898    43.186737    7.925532    -14.508688    -40.139328    26.812153    47.039730    13.806001    -0.817933    -23.303925    -0.000000    0.000000    -0.000000    8.264753    17.824907    12.417151    7.865433    0.000005    -0.000000    7.865436    -0.000003    0.000000    4.240894    8.975765    6.818708    4.188877    0.000005    -0.000004    4.188869    0.000000    -0.000000    2.379860    -8.992373    3.181751    2.350594    0.000000    0.000003    2.350590    0.000000    0.000003    0.538677    -17.999216    5.785598    0.512312    -0.000002    0.000000    0.512321    -0.000002    -0.000007    4.498290    -10.547475    0.169340    -0.000001    22.435373    0.000000    4.447161    -10.294838    -0.575736    0.000000    2.149426    -0.000000    2.591719    -20.355164    -12.634129    0.000001    38.482346    -0.000002    8.672943    -2.488845    5.568311    0.000002    -4.909860    -0.000002    
61.584671    83.656349    -5.429420    -6.327610    7.480645    0.495113    0.713444    -17.608290    2.357225    -0.250098    14.377316    2.238458    11.442709    -11.990405    -0.600252    3.631903    4.606018    -3.300263    2.616039    6.655126    -5.625728    -17.853374    60.428391    -41.679192    11.743172    10.433400    -48.939045    19.858442    8.774719    -15.577500    25.930981    38.544216    -44.979530    -13.126043    -0.524999    23.311892    -0.000000    0.000000    -0.000000    6.022320    17.906975    -2.817343    5.729577    0.000002    0.000002    5.729577    -0.000002    0.000001    5.800514    8.954675    -1.385614    5.729577    0.000002    -0.000003    5.729579    -0.000002    0.000004    5.800519    -8.954671    -2.862235    5.729575    -0.000003    -0.000002    5.729579    0.000004    0.000002    6.022316    -17.906971    -5.678360    5.729578    0.000003    -0.000004    5.729579    0.000003    -0.000000    1.291034    4.967404    10.024774    -1.093666    56.903980    51.968578    13.689570    -13.378448    46.471256    45.037418    6.892937    -15.565016    -40.556488    26.278627    47.580059    13.663410    -0.756514    -23.305883    -0.000000    0.000000    -0.000000    9.562788    17.765657    13.638879    9.102789    -0.000002    -0.000003    9.102785    0.000000    -0.000000    5.190047    8.963706    7.479946    5.126494    -0.000004    -0.000010    5.126489    0.000002    0.000007    3.177386    -8.986389    3.182547    3.138340    -0.000002    0.000000    3.138341    -0.000002    0.000003    1.209364    -17.996218    5.745186    1.150188    -0.000000    -0.000007    1.150187    -0.000003    0.000003    5.261684    -10.182252    0.847089    -0.000000    21.873539    0.000000    4.290720    -10.454952    -0.650459    0.000000    2.519555    -0.000000    2.854111    -21.407639    -12.405092    0.000000    40.051472    0.000001    9.335610    -1.381602    6.319698    0.000002    -4.294238    -0.000000    
